<?xml version="1.0" encoding="utf-8"?>
<!-- Generator: Adobe Illustrator 16.0.0, SVG Export Plug-In . SVG Version: 6.00 Build 0)  -->
<!DOCTYPE svg PUBLIC "-//W3C//DTD SVG 1.1//EN" "http://www.w3.org/Graphics/SVG/1.1/DTD/svg11.dtd">
<svg version="1.1" id="Layer_1" xmlns="http://www.w3.org/2000/svg" xmlns:xlink="http://www.w3.org/1999/xlink" x="0px" y="0px"
	 width="256px" height="256px" viewBox="0 0 256 256" enable-background="new 0 0 256 256" xml:space="preserve">
<g>
	<g>
		<g>
			<g>
				<path fill="#FFFFFF" stroke="#448DC7" stroke-width="2" stroke-miterlimit="10" d="M199.881,185.004
					c0,7.997-6.281,14.48-14.026,14.48H70.147c-7.749,0-14.028-6.483-14.028-14.48V70.995c0-7.995,6.279-14.478,14.028-14.478
					h115.708c7.745,0,14.026,6.483,14.026,14.478V185.004z"/>
				<g>
					<g>
						<g>
							<g>
								<rect x="108.524" y="37.203" fill="#448DC7" width="3.058" height="54.334"/>
								<circle fill="#1E3A6D" cx="110.054" cy="37.203" r="5.71"/>
							</g>
							<g>
								<rect x="144.416" y="37.203" fill="#448DC7" width="3.06" height="54.334"/>
								<circle fill="#1E3A6D" cx="145.946" cy="37.203" r="5.71"/>
							</g>
						</g>
						<g>
							<rect x="126.47" y="22.88" fill="#448DC7" width="3.059" height="68.657"/>
							<circle fill="#1E3A6D" cx="128" cy="22.88" r="5.71"/>
						</g>
					</g>
					<g>
						<g>
							<g>
								<rect x="144.416" y="164.465" fill="#448DC7" width="3.06" height="54.332"/>
								<path fill="#1E3A6D" d="M140.236,218.797c0-3.153,2.558-5.707,5.709-5.707c3.155,0,5.711,2.554,5.711,5.707
									c0,3.155-2.556,5.711-5.711,5.711C142.794,224.508,140.236,221.952,140.236,218.797z"/>
							</g>
							<g>
								<rect x="108.524" y="164.465" fill="#448DC7" width="3.058" height="54.332"/>
								<path fill="#1E3A6D" d="M104.344,218.797c0-3.153,2.558-5.707,5.709-5.707c3.153,0,5.711,2.554,5.711,5.707
									c0,3.155-2.558,5.711-5.711,5.711C106.902,224.508,104.344,221.952,104.344,218.797z"/>
							</g>
						</g>
						<g>
							<rect x="126.47" y="164.465" fill="#448DC7" width="3.059" height="68.657"/>
							<circle fill="#1E3A6D" cx="128" cy="233.122" r="5.71"/>
						</g>
					</g>
				</g>
				<g>
					<g>
						<g>
							<g>
								<rect x="37.203" y="144.419" fill="#448DC7" width="54.333" height="3.057"/>
								<circle fill="#1E3A6D" cx="37.203" cy="145.946" r="5.71"/>
							</g>
							<g>
								<rect x="37.203" y="108.524" fill="#448DC7" width="54.333" height="3.06"/>
								<circle fill="#1E3A6D" cx="37.203" cy="110.054" r="5.71"/>
							</g>
						</g>
						<g>
							<rect x="22.88" y="126.473" fill="#448DC7" width="68.656" height="3.058"/>
							<circle fill="#1E3A6D" cx="22.88" cy="128" r="5.71"/>
						</g>
					</g>
					<g>
						<g>
							<g>
								<rect x="164.465" y="108.524" fill="#448DC7" width="54.332" height="3.06"/>
								<circle fill="#1E3A6D" cx="218.797" cy="110.054" r="5.71"/>
							</g>
							<g>
								<rect x="164.465" y="144.419" fill="#448DC7" width="54.332" height="3.057"/>
								<circle fill="#1E3A6D" cx="218.797" cy="145.946" r="5.71"/>
							</g>
						</g>
						<g>
							<rect x="164.465" y="126.473" fill="#448DC7" width="68.654" height="3.058"/>
							<circle fill="#1E3A6D" cx="233.119" cy="128" r="5.71"/>
						</g>
					</g>
				</g>
				<g>
					<g>
						<path fill="#1E3A6D" d="M180.496,174.443c0,2.2-1.8,4-4,4H79.503c-2.2,0-4-1.8-4-4V81.559c0-2.2,1.8-4,4-4h96.993
							c2.2,0,4,1.8,4,4V174.443z"/>
					</g>
					<g>
						<path fill="#448DC7" d="M171.694,164.329c0,2.2-1.8,4-4,4H88.307c-2.2,0-4-1.8-4-4V91.671c0-2.2,1.8-4,4-4h79.388
							c2.2,0,4,1.8,4,4V164.329z"/>
					</g>
				</g>
			</g>
			<g opacity="0.2">
				<rect x="113.456" y="113.456" fill="none" stroke="#1E3A6D" stroke-miterlimit="10" width="29.089" height="29.089"/>
				<g>
					<g>
						<polyline fill="none" stroke="#1E3A6D" stroke-miterlimit="10" points="132.055,112.916 132.055,102.331 140.752,96.917 
							140.752,86.091 						"/>
						<polyline fill="none" stroke="#1E3A6D" stroke-miterlimit="10" points="123.946,112.916 123.946,101.413 115.247,96 
							115.247,85.171 						"/>
					</g>
					<g>
						<polyline fill="none" stroke="#1E3A6D" stroke-miterlimit="10" points="123.946,143.085 123.946,153.669 115.247,159.083 
							115.247,169.91 						"/>
						<polyline fill="none" stroke="#1E3A6D" stroke-miterlimit="10" points="132.055,143.085 132.055,154.59 140.752,160.002 
							140.752,170.828 						"/>
					</g>
				</g>
				<g>
					<g>
						<polyline fill="none" stroke="#1E3A6D" stroke-miterlimit="10" points="112.916,123.946 102.332,123.946 96.916,115.247 
							81.818,115.247 						"/>
						<polyline fill="none" stroke="#1E3A6D" stroke-miterlimit="10" points="112.916,132.055 101.412,132.055 96,140.752 
							80.898,140.752 						"/>
					</g>
					<g>
						<polyline fill="none" stroke="#1E3A6D" stroke-miterlimit="10" points="143.085,132.055 153.671,132.055 159.083,140.752 
							174.183,140.752 						"/>
						<polyline fill="none" stroke="#1E3A6D" stroke-miterlimit="10" points="143.085,123.946 154.59,123.946 160.002,115.247 
							175.102,115.247 						"/>
					</g>
				</g>
			</g>
		</g>
		<path opacity="0.2" fill="none" stroke="#1E3A6D" stroke-miterlimit="10" d="M134.475,132.342c0,1.177-0.957,2.135-2.133,2.135
			h-8.681c-1.18,0-2.135-0.958-2.135-2.135v-8.683c0-1.179,0.956-2.133,2.135-2.133h8.681c1.176,0,2.133,0.955,2.133,2.133V132.342z
			"/>
	</g>
	<g>
		<path fill-rule="evenodd" clip-rule="evenodd" fill="#FFFFFF" d="M140.277,163.523c-4.419,0-8.75,0-13.115,0
			c0-2.189,0-4.353,0-6.56c0.885,0,1.767,0,2.699,0c0,1.252,0,2.497,0,3.789c2.56,0,5.07,0,7.631,0c0-1.776,0-3.563,0-5.339
			c1.336-0.381,2.63-0.716,3.903-1.124c1.801-0.574,3.494-1.389,5.051-2.467c0.35-0.243,0.586-0.207,0.93,0.087
			c1.294,1.108,2.635,2.164,3.837,3.143c2.007-1.897,3.984-3.765,5.985-5.655c-1.173-1.321-2.214-2.521-3.287-3.688
			c-0.374-0.406-0.52-0.674-0.167-1.243c1.538-2.496,2.806-5.126,3.437-8.018c0.078-0.354,0.256-0.45,0.602-0.446
			c1.939,0.014,3.879,0.007,5.864,0.007c0-3,0-5.97,0-9.02c-0.219,0-0.438,0-0.661,0c-1.688,0-3.38-0.009-5.069,0.009
			c-0.388,0.004-0.538-0.128-0.614-0.502c-0.567-2.795-1.497-5.47-2.757-8.028c-0.261-0.53-0.541-1.062-0.896-1.532
			c-0.248-0.33-0.172-0.523,0.042-0.792c1.085-1.366,2.164-2.735,3.225-4.121c0.082-0.108-0.001-0.345-0.013-0.521
			c0-0.016-0.027-0.031-0.04-0.046c-1.814-1.865-3.63-3.731-5.454-5.609c-0.516,0.45-1.017,0.865-1.494,1.306
			c-0.793,0.734-1.613,1.443-2.337,2.24c-0.464,0.511-0.817,0.418-1.314,0.118c-0.908-0.548-1.837-1.059-2.771-1.557
			c-1.67-0.893-3.471-1.426-5.298-1.873c-0.217-0.052-0.429-0.112-0.676-0.178c0-2.142,0-4.263,0-6.422c-2.539,0-5.036,0-7.602,0
			c0,2.119,0,4.254,0,6.433c-0.953,0-1.835,0-2.751,0c0-3.053,0-6.091,0-9.175c4.344,0,8.691,0,13.087,0c0,2.332,0,4.66,0,6.854
			c2.188,0.917,4.288,1.796,6.484,2.717c1.477-1.351,3.091-2.829,4.779-4.374c0.86,0.915,1.711,1.835,2.581,2.739
			c0.709,0.736,1.446,1.445,2.16,2.176c1.424,1.459,2.834,2.932,4.271,4.38c0.273,0.277,0.216,0.443,0.009,0.709
			c-1.169,1.481-2.306,2.987-3.487,4.457c-0.223,0.275-0.268,0.467-0.105,0.758c1.172,2.104,1.885,4.386,2.595,6.67
			c0.035,0.115,0.036,0.241,0.059,0.401c2.256,0,4.504,0,6.802,0c0,4.806,0,9.569,0,14.411c-0.219,0-0.44,0-0.661,0
			c-1.919,0-3.84,0.012-5.76-0.009c-0.431-0.005-0.537,0.164-0.695,0.561c-0.665,1.664-1.393,3.307-2.159,4.93
			c-0.209,0.443-0.268,0.743,0.074,1.116c1.129,1.235,2.23,2.496,3.369,3.726c0.275,0.297,0.322,0.509-0.007,0.761
			c-0.017,0.011-0.028,0.029-0.044,0.043c-2.853,2.896-5.706,5.785-8.551,8.686c-0.308,0.313-0.494,0.433-0.906,0.075
			c-1.305-1.128-2.679-2.177-3.995-3.29c-0.374-0.318-0.621-0.121-0.942,0.018c-1.422,0.614-2.847,1.222-4.279,1.807
			c-0.485,0.199-1.229,0.188-1.441,0.529c-0.264,0.428-0.116,1.121-0.121,1.7C140.271,160.684,140.277,162.079,140.277,163.523z"/>
		<path fill-rule="evenodd" clip-rule="evenodd" fill="#FFFFFF" d="M132.284,150.508c0-0.998,0-1.811,0-2.71
			c0.759-0.087,1.521-0.175,2.284-0.263c2.531-0.298,4.814-1.268,6.906-2.674c3.759-2.528,6.277-5.987,7.382-10.389
			c0.796-3.172,0.591-6.302-0.729-9.346c-0.832-1.916-1.961-3.621-3.454-5.045c-2.577-2.46-5.62-4.111-9.182-4.586
			c-1.736-0.232-3.51-0.233-5.268-0.263c-2.336-0.042-4.673-0.023-7.011,0c-0.505,0.004-0.812-0.139-1.109-0.572
			c-2.408-3.507-4.847-6.994-7.206-10.386c-1.001,0.147-1.952,0.38-2.909,0.412c-2.592,0.083-5.061-1.879-5.624-4.394
			c-0.761-3.406,0.919-6.397,4.295-7.303c3.279-0.88,6.645,1.27,7.311,4.619c0.296,1.493,0.047,2.949-0.763,4.249
			c-0.24,0.385-0.189,0.6,0.034,0.919c1.633,2.329,3.253,4.665,4.877,7c0.549,0.789,1.07,1.599,1.66,2.356
			c0.154,0.198,0.52,0.322,0.789,0.324c2.858,0.022,5.719-0.029,8.576,0.023c4.335,0.08,8.22,1.485,11.684,4.093
			c2.261,1.703,4.04,3.813,5.333,6.314c0.827,1.601,1.448,3.293,1.63,5.107c0.118,1.169,0.259,2.347,0.239,3.516
			c-0.039,2.295-0.569,4.502-1.487,6.604c-1.113,2.553-2.637,4.838-4.67,6.754c-2.912,2.746-6.281,4.635-10.272,5.28
			C134.528,150.324,133.439,150.387,132.284,150.508z M112.071,101.958c1.612,0.117,3.228-1.224,3.285-3.178
			c0.051-1.713-1.47-3.19-3.191-3.231c-1.471-0.036-3.263,1.061-3.28,3.2C108.868,100.844,110.653,102.055,112.071,101.958z"/>
		<path fill-rule="evenodd" clip-rule="evenodd" fill="#FFFFFF" d="M129.777,124.361c0-0.943,0-1.796,0-2.751
			c0.555,0,1.106,0.007,1.659-0.001c1.405-0.022,2.804-0.026,4.146,0.499c3.268,1.28,5.348,3.633,6.037,7.052
			c0.55,2.737-0.17,5.245-1.971,7.417c-1.545,1.862-3.49,3.001-5.897,3.309c-0.552,0.07-1.109,0.122-1.664,0.122
			c-4.297,0.011-8.596,0.011-12.893-0.003c-0.414,0-0.653,0.115-0.897,0.487c-1.787,2.714-3.621,5.401-5.415,8.114
			c-0.258,0.388-0.521,0.567-0.997,0.558c-1.397-0.028-2.796-0.002-4.193-0.016c-0.306-0.004-0.477,0.072-0.599,0.379
			c-0.762,1.909-2.975,3.479-5.256,3.547c-2.739,0.079-5.299-1.851-5.916-4.366c-0.517-2.109-0.098-3.955,1.359-5.59
			c1.142-1.278,2.596-1.879,4.241-1.951c1.381-0.063,2.665,0.396,3.774,1.249c1.178,0.909,1.946,2.073,2.198,3.567
			c0.027,0.163,0.307,0.393,0.478,0.399c0.875,0.04,1.753,0.049,2.626,0c0.227-0.014,0.509-0.228,0.648-0.433
			c1.859-2.717,3.708-5.442,5.527-8.187c0.254-0.383,0.508-0.511,0.948-0.511c4.882,0.013,9.763,0.011,14.646,0.006
			c2.366,0,4.216-1.05,5.528-2.959c1.595-2.321,1.523-4.813-0.019-7.066c-1.276-1.866-3.098-2.893-5.422-2.873
			C131.581,124.368,130.71,124.361,129.777,124.361z M104.85,147.089c-0.002-1.763-1.449-3.203-3.214-3.196
			c-1.732,0.007-3.187,1.489-3.188,3.244c-0.002,1.783,1.412,3.194,3.201,3.21C103.685,150.366,105.005,148.529,104.85,147.089z"/>
		<path fill-rule="evenodd" clip-rule="evenodd" fill="#FFFFFF" d="M120.602,121.61c0,0.945,0,1.799,0,2.744
			c-1.161,0-2.319,0.011-3.475-0.016c-0.145-0.002-0.315-0.194-0.422-0.335c-1.82-2.396-3.626-4.804-5.455-7.195
			c-0.131-0.172-0.415-0.313-0.633-0.321c-0.958-0.034-1.918,0.006-2.876-0.024c-0.374-0.011-0.533,0.131-0.682,0.451
			c-0.759,1.636-2.009,2.698-3.753,3.208c-3.142,0.918-6.585-0.823-7.444-4.259c-0.533-2.134,0.033-4.105,1.588-5.66
			c0.929-0.929,2.108-1.466,3.482-1.644c1.905-0.248,3.476,0.391,4.853,1.566c0.9,0.769,1.478,1.815,1.669,3.005
			c0.078,0.48,0.261,0.608,0.716,0.599c1.229-0.026,2.46,0.006,3.69-0.017c0.435-0.008,0.681,0.127,0.954,0.499
			c1.755,2.393,3.553,4.755,5.357,7.112c0.125,0.162,0.414,0.259,0.634,0.272C119.383,121.635,119.964,121.61,120.602,121.61z
			 M104.85,114.43c0.112-1.462-1.15-3.163-3.18-3.211c-1.737-0.041-3.217,1.447-3.221,3.183c-0.004,1.803,1.377,3.204,3.164,3.208
			C103.478,117.614,104.849,116.269,104.85,114.43z"/>
		<path fill-rule="evenodd" clip-rule="evenodd" fill="#FFFFFF" d="M103.621,132.125c-0.236,2.584-2.21,4.688-4.653,5.137
			c-2.164,0.398-4.032-0.146-5.564-1.74c-1.417-1.477-1.851-3.245-1.469-5.228c0.46-2.383,1.895-3.907,4.213-4.566
			c1.94-0.552,3.761-0.223,5.295,1.101c0.647,0.559,1.155,1.308,1.617,2.04c0.234,0.369,0.428,0.515,0.856,0.513
			c4.485-0.014,8.971-0.009,13.457-0.009c0.224,0,0.448,0,0.706,0c0,0.925,0,1.792,0,2.753c-2.407,0-4.816,0-7.226,0
			C108.457,132.125,106.061,132.125,103.621,132.125z M97.706,134.639c1.483,0.145,3.233-1.197,3.255-3.148
			c0.021-1.808-1.421-3.25-3.226-3.252c-1.783-0.002-3.193,1.392-3.221,3.189C94.486,133.183,95.926,134.633,97.706,134.639z"/>
		<path fill-rule="evenodd" clip-rule="evenodd" fill="#FFFFFF" d="M113.239,155.556c1.754-1.992,3.486-3.955,5.211-5.925
			c0.392-0.448,0.76-0.916,1.135-1.38c0.26-0.322,0.55-0.507,1.005-0.484c0.852,0.043,1.708,0.014,2.609,0.014
			c0,0.868,0,1.709,0,2.591c-0.095,0.012-0.198,0.052-0.29,0.029c-1.323-0.301-2.008,0.524-2.704,1.44
			c-0.625,0.82-1.355,1.559-2.039,2.332c-0.957,1.084-1.921,2.161-2.865,3.253c-0.205,0.238-0.335,0.5-0.197,0.873
			c0.704,1.914,0.397,3.726-0.758,5.359c-0.963,1.359-2.291,2.176-3.992,2.416c-2.082,0.295-3.81-0.337-5.234-1.814
			c-2.125-2.203-1.958-6.032,0.016-8.13c1.875-1.995,5.209-2.44,7.57-0.965C112.88,155.274,113.038,155.407,113.239,155.556z
			 M112.733,160.172c-0.008-1.735-1.465-3.176-3.227-3.189c-1.769-0.014-3.259,1.494-3.223,3.259
			c0.036,1.783,1.459,3.194,3.22,3.192C111.269,163.429,112.742,161.943,112.733,160.172z"/>
		<path fill-rule="evenodd" clip-rule="evenodd" fill="#FFFFFF" d="M123.175,121.633c1.354,0,2.678,0,4.04,0
			c0,0.903,0,1.783,0,2.697c-1.342,0-2.666,0-4.04,0C123.175,123.461,123.175,122.578,123.175,121.633z"/>
		<path fill-rule="evenodd" clip-rule="evenodd" fill="#FFFFFF" d="M120.541,129.398c0.905,0,1.771,0,2.67,0
			c0,0.892,0,1.757,0,2.675c-0.862,0-1.743,0-2.67,0C120.541,131.216,120.541,130.336,120.541,129.398z"/>
		<path fill-rule="evenodd" clip-rule="evenodd" fill="#FFFFFF" d="M129.857,129.419c0,0.905,0,1.771,0,2.67
			c-0.892,0-1.756,0-2.674,0c0-0.862,0-1.742,0-2.67C128.041,129.419,128.921,129.419,129.857,129.419z"/>
		<path fill-rule="evenodd" clip-rule="evenodd" fill="#FFFFFF" d="M127.179,147.805c0.904,0,1.769,0,2.67,0
			c0,0.851,0,1.673,0,2.551c-0.863,0-1.743,0-2.67,0C127.179,149.539,127.179,148.701,127.179,147.805z"/>
	</g>
</g>
</svg>
